<svg width="25" height="29" viewBox="0 0 45 49" fill="none" xmlns="http://www.w3.org/2000/svg">
<path d="M22.5 48.0026C24.205 48.0026 25.8401 47.3705 27.0457 46.2453C28.2513 45.12 28.9286 43.5939 28.9286 42.0026H16.0714C16.0714 43.5939 16.7487 45.12 17.9543 46.2453C19.1599 47.3705 20.795 48.0026 22.5 48.0026ZM22.5 5.75662L19.9382 6.23962C17.0324 6.79223 14.4203 8.26494 12.5442 10.4085C10.6681 12.552 9.64317 15.2348 9.64286 18.0026C9.64286 19.8866 9.21214 24.5936 8.1675 29.2286C7.65321 31.5296 6.95893 33.9266 6.03643 36.0026H38.9636C38.0411 33.9266 37.35 31.5326 36.8325 29.2286C35.7879 24.5936 35.3571 19.8866 35.3571 18.0026C35.3561 15.2353 34.3308 12.5533 32.4547 10.4103C30.5787 8.26739 27.9671 6.79512 25.0618 6.24262L22.5 5.75662ZM42.4929 36.0026C43.2096 37.3436 44.0389 38.4056 45 39.0026H0C0.961071 38.4056 1.79036 37.3436 2.50714 36.0026C5.4 30.6026 6.42857 20.6426 6.42857 18.0026C6.42857 10.7426 11.9571 4.68262 19.3018 3.29962C19.2569 2.88249 19.3062 2.4612 19.4465 2.06294C19.5868 1.66469 19.815 1.29829 20.1164 0.987399C20.4177 0.676504 20.7855 0.428008 21.1961 0.257938C21.6066 0.0878684 22.0508 0 22.5 0C22.9492 0 23.3934 0.0878684 23.8039 0.257938C24.2145 0.428008 24.5823 0.676504 24.8836 0.987399C25.185 1.29829 25.4132 1.66469 25.5535 2.06294C25.6938 2.4612 25.7431 2.88249 25.6982 3.29962C29.3313 3.98933 32.5973 5.82971 34.9433 8.50913C37.2892 11.1885 38.571 14.5423 38.5714 18.0026C38.5714 20.6426 39.6 30.6026 42.4929 36.0026Z" fill="black"/>
</svg>
