<svg width="24" height="24" viewBox="0 0 48 48" fill="none" xmlns="http://www.w3.org/2000/svg">
<g clip-path="url(#clip0_77_168)">
<path d="M32.5619 21.438C32.7016 21.5773 32.8125 21.7429 32.8881 21.9251C32.9637 22.1073 33.0026 22.3027 33.0026 22.5C33.0026 22.6973 32.9637 22.8927 32.8881 23.0749C32.8125 23.2571 32.7016 23.4227 32.5619 23.562L23.5619 32.562C23.4226 32.7017 23.2571 32.8125 23.0748 32.8881C22.8926 32.9638 22.6972 33.0027 22.4999 33.0027C22.3026 33.0027 22.1073 32.9638 21.925 32.8881C21.7428 32.8125 21.5773 32.7017 21.4379 32.562L16.9379 28.062C16.7985 27.9225 16.6878 27.757 16.6124 27.5747C16.5369 27.3925 16.498 27.1972 16.498 27C16.498 26.8028 16.5369 26.6075 16.6124 26.4252C16.6878 26.243 16.7985 26.0775 16.9379 25.938C17.2196 25.6563 17.6016 25.4981 17.9999 25.4981C18.1972 25.4981 18.3925 25.5369 18.5747 25.6124C18.7569 25.6879 18.9225 25.7985 19.0619 25.938L22.4999 29.379L30.4379 21.438C30.5773 21.2983 30.7428 21.1875 30.925 21.1119C31.1073 21.0362 31.3026 20.9973 31.4999 20.9973C31.6972 20.9973 31.8926 21.0362 32.0748 21.1119C32.2571 21.1875 32.4226 21.2983 32.5619 21.438Z" fill="black"/>
<path d="M10.5 0C10.8978 0 11.2794 0.158035 11.5607 0.43934C11.842 0.720644 12 1.10218 12 1.5V3H36V1.5C36 1.10218 36.158 0.720644 36.4393 0.43934C36.7206 0.158035 37.1022 0 37.5 0C37.8978 0 38.2794 0.158035 38.5607 0.43934C38.842 0.720644 39 1.10218 39 1.5V3H42C43.5913 3 45.1174 3.63214 46.2426 4.75736C47.3679 5.88258 48 7.4087 48 9V42C48 43.5913 47.3679 45.1174 46.2426 46.2426C45.1174 47.3679 43.5913 48 42 48H6C4.4087 48 2.88258 47.3679 1.75736 46.2426C0.632141 45.1174 0 43.5913 0 42V9C0 7.4087 0.632141 5.88258 1.75736 4.75736C2.88258 3.63214 4.4087 3 6 3H9V1.5C9 1.10218 9.15804 0.720644 9.43934 0.43934C9.72064 0.158035 10.1022 0 10.5 0ZM3 12V42C3 42.7957 3.31607 43.5587 3.87868 44.1213C4.44129 44.6839 5.20435 45 6 45H42C42.7957 45 43.5587 44.6839 44.1213 44.1213C44.6839 43.5587 45 42.7957 45 42V12H3Z" fill="black"/>
</g>
<defs>
<clipPath id="clip0_77_168">
<rect width="48" height="48" fill="white"/>
</clipPath>
</defs>
</svg>
