<svg width="50" height="50" viewBox="0 0 50 50" fill="none" xmlns="http://www.w3.org/2000/svg">
<path d="M25 28.0001C23.0197 28.0018 21.0699 27.5304 19.3248 26.6281C17.5797 25.7257 16.0938 24.4206 15 22.8294L17.8562 21.0001C18.638 22.1366 19.6996 23.0689 20.9461 23.7138C22.1926 24.3587 23.5853 24.6962 25 24.6962C26.4147 24.6962 27.8074 24.3587 29.0539 23.7138C30.3004 23.0689 31.362 22.1366 32.1438 21.0001L35 22.8294C33.9062 24.4206 32.4203 25.7257 30.6752 26.6281C28.9301 27.5304 26.9803 28.0018 25 28.0001Z" fill="black"/>
<path d="M31.4999 10.0003C30.8077 10.0003 30.131 10.2056 29.5555 10.5901C28.9799 10.9747 28.5313 11.5213 28.2664 12.1609C28.0015 12.8004 27.9322 13.5041 28.0673 14.183C28.2023 14.8619 28.5356 15.4855 29.0251 15.975C29.5146 16.4645 30.1382 16.7978 30.8171 16.9329C31.496 17.0679 32.1997 16.9986 32.8393 16.7337C33.4788 16.4688 34.0254 16.0202 34.41 15.4447C34.7946 14.8691 34.9998 14.1924 34.9998 13.5002C35.0045 13.0393 34.9172 12.5821 34.7429 12.1553C34.5687 11.7286 34.3111 11.3409 33.9852 11.015C33.6592 10.689 33.2715 10.4314 32.8448 10.2572C32.418 10.083 31.9608 9.99562 31.4999 10.0003Z" fill="black"/>
<path d="M18.4999 10.0002C17.8077 10.0002 17.131 10.2054 16.5555 10.59C15.9799 10.9746 15.5313 11.5212 15.2664 12.1607C15.0015 12.8003 14.9322 13.504 15.0673 14.1829C15.2023 14.8618 15.5356 15.4854 16.0251 15.9749C16.5146 16.4644 17.1382 16.7977 17.8171 16.9327C18.496 17.0678 19.1997 16.9985 19.8393 16.7336C20.4788 16.4687 21.0254 16.0201 21.41 15.4445C21.7946 14.869 21.9998 14.1923 21.9998 13.5001C22.0045 13.0392 21.9172 12.582 21.7429 12.1552C21.5687 11.7285 21.3111 11.3408 20.9852 11.0148C20.6592 10.6889 20.2715 10.4313 19.8448 10.2571C19.418 10.0828 18.9608 9.9955 18.4999 10.0002Z" fill="black"/>
<path d="M28.1 50L25 48.2143L32.1429 35.7143H42.8571C43.3263 35.715 43.7911 35.6231 44.2247 35.4439C44.6583 35.2646 45.0523 35.0016 45.3841 34.6698C45.7159 34.338 45.9789 33.944 46.1581 33.5104C46.3374 33.0768 46.4293 32.6121 46.4286 32.1429V7.14286C46.4293 6.67365 46.3374 6.20892 46.1581 5.7753C45.9789 5.34167 45.7159 4.94768 45.3841 4.6159C45.0523 4.28412 44.6583 4.02108 44.2247 3.84185C43.7911 3.66262 43.3263 3.57072 42.8571 3.57143H7.14286C6.67365 3.57072 6.20892 3.66262 5.7753 3.84185C5.34167 4.02108 4.94768 4.28412 4.6159 4.6159C4.28412 4.94768 4.02108 5.34167 3.84185 5.7753C3.66262 6.20892 3.57072 6.67365 3.57143 7.14286V32.1429C3.57072 32.6121 3.66262 33.0768 3.84185 33.5104C4.02108 33.944 4.28412 34.338 4.6159 34.6698C4.94768 35.0016 5.34167 35.2646 5.7753 35.4439C6.20892 35.6231 6.67365 35.715 7.14286 35.7143H23.2143V39.2857H7.14286C5.24845 39.2857 3.43164 38.5332 2.09209 37.1936C0.752549 35.8541 2.23347e-07 34.0373 2.23347e-07 32.1429V7.14286C-0.000234384 6.20478 0.184361 5.27584 0.54324 4.40913C0.902119 3.54241 1.42825 2.75489 2.09157 2.09157C2.75489 1.42825 3.54241 0.902119 4.40913 0.54324C5.27584 0.184361 6.20478 -0.000234384 7.14286 2.23347e-07H42.8571C43.7952 -0.000234384 44.7242 0.184361 45.5909 0.54324C46.4576 0.902119 47.2451 1.42825 47.9084 2.09157C48.5718 2.75489 49.0979 3.54241 49.4568 4.40913C49.8156 5.27584 50.0002 6.20478 50 7.14286V32.1429C50 34.0373 49.2474 35.8541 47.9079 37.1936C46.5684 38.5332 44.7515 39.2857 42.8571 39.2857H34.2232L28.1 50Z" fill="black"/>
</svg>
