<svg width="48" height="48" viewBox="0 0 48 48" fill="none" xmlns="http://www.w3.org/2000/svg">
<path fill-rule="evenodd" clip-rule="evenodd" d="M16.6684 5.40003H31.3319C34.6141 5.39998 37.2596 5.39993 39.3404 5.67967C41.5007 5.97012 43.3194 6.59146 44.7642 8.03607C46.2087 9.48067 46.8301 11.2996 47.1205 13.4598C47.4001 15.5406 47.4001 18.1861 47.4001 21.4683V26.5318C47.4001 29.814 47.4001 32.4595 47.1205 34.5403C46.8301 36.7006 46.2087 38.5193 44.7642 39.9641C43.3194 41.4087 41.5007 42.03 39.3404 42.3204C37.2596 42.6 34.6141 42.6 31.3319 42.6H16.6684C13.3862 42.6 10.7406 42.6 8.6599 42.3204C6.49963 42.03 4.68074 41.4087 3.23614 39.9641C1.79154 38.5193 1.17019 36.7006 0.879754 34.5403C0.600008 32.4595 0.600049 29.814 0.600099 26.5318V21.4683C0.600049 18.1861 0.600008 15.5406 0.879754 13.4598C1.17019 11.2996 1.79154 9.48067 3.23614 8.03607C4.68074 6.59146 6.49963 5.97012 8.6599 5.67967C10.7406 5.39993 13.3862 5.39998 16.6684 5.40003ZM9.13958 9.24759C7.37854 9.48434 6.44594 9.91743 5.78172 10.5816C5.1175 11.2459 4.68442 12.1785 4.44766 13.9395C4.20391 15.7524 4.2001 18.155 4.2001 21.6V26.4C4.2001 29.845 4.20391 32.2476 4.44766 34.0606C4.68442 35.8217 5.1175 36.7541 5.78172 37.4184C6.44594 38.0827 7.37854 38.5157 9.13958 38.7526C10.9524 38.9962 13.3551 39 16.8001 39H31.2001C34.6451 39 37.0477 38.9962 38.8607 38.7526C40.6218 38.5157 41.5542 38.0827 42.2185 37.4184C42.8828 36.7541 43.3158 35.8217 43.5527 34.0606C43.7963 32.2476 43.8001 29.845 43.8001 26.4V21.6C43.8001 18.155 43.7963 15.7524 43.5527 13.9395C43.3158 12.1785 42.8828 11.2459 42.2185 10.5816C41.5542 9.91743 40.6218 9.48434 38.8607 9.24759C37.0477 9.00384 34.6451 9.00003 31.2001 9.00003H16.8001C13.3551 9.00003 10.9524 9.00384 9.13958 9.24759Z" fill="#212121"/>
<path fill-rule="evenodd" clip-rule="evenodd" d="M8.1023 15.8016C8.65372 14.9744 9.77131 14.7509 10.5984 15.3023L17.0108 19.5772C18.9792 20.8895 20.3376 21.7921 21.4713 22.3819C22.5659 22.9513 23.3025 23.1467 24 23.1467C24.6975 23.1467 25.434 22.9513 26.5287 22.3819C27.6624 21.7921 29.0208 20.8895 30.9893 19.5772L37.4016 15.3023C38.2287 14.7509 39.3463 14.9744 39.8976 15.8016C40.4491 16.6287 40.2257 17.7463 39.3984 18.2977L32.9031 22.628C31.0378 23.8716 29.5176 24.8849 28.1902 25.5756C26.8039 26.2968 25.4825 26.7468 24 26.7468C22.5175 26.7468 21.1961 26.2968 19.8099 25.5756C18.4823 24.8849 16.9622 23.8716 15.0969 22.628L8.60152 18.2977C7.77439 17.7463 7.55087 16.6287 8.1023 15.8016Z" fill="#212121"/>
</svg>
