<svg width="50" height="50" viewBox="0 0 50 50" fill="none" xmlns="http://www.w3.org/2000/svg">
<path d="M25 25C28.3152 25 31.4946 23.683 33.8388 21.3388C36.183 18.9946 37.5 15.8152 37.5 12.5C37.5 9.18479 36.183 6.00537 33.8388 3.66117C31.4946 1.31696 28.3152 0 25 0C21.6848 0 18.5054 1.31696 16.1612 3.66117C13.817 6.00537 12.5 9.18479 12.5 12.5C12.5 15.8152 13.817 18.9946 16.1612 21.3388C18.5054 23.683 21.6848 25 25 25ZM33.3333 12.5C33.3333 14.7101 32.4554 16.8298 30.8926 18.3926C29.3298 19.9554 27.2101 20.8333 25 20.8333C22.7899 20.8333 20.6702 19.9554 19.1074 18.3926C17.5446 16.8298 16.6667 14.7101 16.6667 12.5C16.6667 10.2899 17.5446 8.17025 19.1074 6.60744C20.6702 5.04464 22.7899 4.16667 25 4.16667C27.2101 4.16667 29.3298 5.04464 30.8926 6.60744C32.4554 8.17025 33.3333 10.2899 33.3333 12.5ZM50 45.8333C50 50 45.8333 50 45.8333 50H4.16667C4.16667 50 0 50 0 45.8333C0 41.6667 4.16667 29.1667 25 29.1667C45.8333 29.1667 50 41.6667 50 45.8333ZM45.8333 45.8167C45.8292 44.7917 45.1917 41.7083 42.3667 38.8833C39.65 36.1667 34.5375 33.3333 25 33.3333C15.4583 33.3333 10.35 36.1667 7.63333 38.8833C4.80833 41.7083 4.175 44.7917 4.16667 45.8167H45.8333Z" fill="black"/>
</svg>
