<svg width="40" height="35" viewBox="0 0 40 35" fill="none" xmlns="http://www.w3.org/2000/svg">
<path d="M38.1209 12.4661H25.0893V0.87024C25.0891 0.63956 24.9861 0.418358 24.8029 0.255197C24.6197 0.092037 24.3712 0.000254298 24.112 0H14.9844C14.7252 0.000127258 14.4766 0.0918693 14.2934 0.255057C14.1101 0.418245 14.0072 0.639521 14.0072 0.87024L14.0067 12.467L0.977749 12.4666C0.459483 12.4666 0.000539896 12.875 5.9745e-07 13.3368V21.4608C-0.000141473 21.5751 0.0250556 21.6883 0.0741484 21.7939C0.123241 21.8995 0.195264 21.9955 0.286092 22.0763C0.37692 22.1571 0.484767 22.2211 0.603454 22.2647C0.72214 22.3084 0.849335 22.3307 0.977749 22.3306H14.0072V33.9298C14.0073 34.1605 14.1104 34.3818 14.2937 34.545C14.4771 34.7081 14.7257 34.7999 14.985 34.8H24.1115C24.2399 34.8 24.3671 34.7775 24.4857 34.7338C24.6043 34.69 24.7121 34.6259 24.8029 34.5451C24.8937 34.4643 24.9657 34.3684 25.0148 34.2628C25.064 34.1572 25.0893 34.044 25.0893 33.9298V22.331L38.1203 22.3306C38.2488 22.3307 38.376 22.3084 38.4948 22.2647C38.6135 22.221 38.7213 22.1569 38.8122 22.0761C38.903 21.9952 38.975 21.8992 39.0241 21.7936C39.0732 21.6879 39.0983 21.5747 39.0981 21.4603L39.0986 13.3363C39.0986 13.1055 38.9956 12.8842 38.8122 12.721C38.6289 12.5578 38.3802 12.4661 38.1209 12.4661Z" fill="black"/>
</svg>
