<svg width="50" height="50" viewBox="0 0 50 50" fill="none" xmlns="http://www.w3.org/2000/svg">
<path fill-rule="evenodd" clip-rule="evenodd" d="M22.2222 5.55556C13.0175 5.55556 5.55556 13.0175 5.55556 22.2222C5.55556 31.427 13.0175 38.8889 22.2222 38.8889C31.427 38.8889 38.8889 31.427 38.8889 22.2222C38.8889 13.0175 31.427 5.55556 22.2222 5.55556ZM0 22.2222C0 9.94923 9.94923 0 22.2222 0C34.4952 0 44.4444 9.94923 44.4444 22.2222C44.4444 27.3575 42.7026 32.086 39.7774 35.849L49.1864 45.258C50.2712 46.3428 50.2712 48.1016 49.1864 49.1864C48.1016 50.2712 46.3428 50.2712 45.258 49.1864L35.849 39.7774C32.086 42.7026 27.3575 44.4444 22.2222 44.4444C9.94923 44.4444 0 34.4952 0 22.2222Z" fill="#0F1729"/>
</svg>
