<svg width="80" height="80" viewBox="0 0 80 80" fill="none" xmlns="http://www.w3.org/2000/svg">
<g clip-path="url(#clip0_140_78)">
<path d="M80 40C80 29.3913 75.7857 19.2172 68.2843 11.7157C60.7828 4.21427 50.6087 0 40 0C29.3913 0 19.2172 4.21427 11.7157 11.7157C4.21427 19.2172 0 29.3913 0 40C0 50.6087 4.21427 60.7828 11.7157 68.2843C19.2172 75.7857 29.3913 80 40 80C50.6087 80 60.7828 75.7857 68.2843 68.2843C75.7857 60.7828 80 50.6087 80 40ZM42.5 57.5C42.5 58.163 42.2366 58.7989 41.7678 59.2678C41.2989 59.7366 40.663 60 40 60C39.337 60 38.7011 59.7366 38.2322 59.2678C37.7634 58.7989 37.5 58.163 37.5 57.5V28.535L26.77 39.27C26.3006 39.7394 25.6639 40.0032 25 40.0032C24.3361 40.0032 23.6994 39.7394 23.23 39.27C22.7606 38.8006 22.4968 38.1639 22.4968 37.5C22.4968 36.8361 22.7606 36.1994 23.23 35.73L38.23 20.73C38.4622 20.4972 38.7381 20.3125 39.0418 20.1864C39.3456 20.0604 39.6712 19.9955 40 19.9955C40.3288 19.9955 40.6544 20.0604 40.9582 20.1864C41.2619 20.3125 41.5378 20.4972 41.77 20.73L56.77 35.73C57.2394 36.1994 57.5032 36.8361 57.5032 37.5C57.5032 38.1639 57.2394 38.8006 56.77 39.27C56.3006 39.7394 55.6639 40.0032 55 40.0032C54.3361 40.0032 53.6994 39.7394 53.23 39.27L42.5 28.535V57.5Z" fill="#006FFD"/>
</g>
<defs>
<clipPath id="clip0_140_78">
<rect width="80" height="80" fill="white" transform="matrix(1 0 0 -1 0 80)"/>
</clipPath>
</defs>
</svg>
