<svg width="27" height="7" viewBox="0 0 27 7" fill="none" xmlns="http://www.w3.org/2000/svg">
<path d="M3.05895 6.31392C2.26207 6.31392 1.57789 6.0322 1.00639 5.46875C0.442945 4.89725 0.161222 4.21307 0.161222 3.41619C0.161222 2.62737 0.442945 1.95123 1.00639 1.38778C1.57789 0.824337 2.26207 0.542613 3.05895 0.542613C3.83168 0.542613 4.50781 0.824337 5.08736 1.38778C5.6669 1.95123 5.95668 2.62737 5.95668 3.41619C5.95668 3.94744 5.81984 4.43442 5.54617 4.87713C5.28054 5.31179 4.9304 5.66193 4.49574 5.92756C4.06108 6.18513 3.58215 6.31392 3.05895 6.31392ZM13.1859 6.31392C12.389 6.31392 11.7048 6.0322 11.1333 5.46875C10.5699 4.89725 10.2882 4.21307 10.2882 3.41619C10.2882 2.62737 10.5699 1.95123 11.1333 1.38778C11.7048 0.824337 12.389 0.542613 13.1859 0.542613C13.9586 0.542613 14.6348 0.824337 15.2143 1.38778C15.7939 1.95123 16.0836 2.62737 16.0836 3.41619C16.0836 3.94744 15.9468 4.43442 15.6731 4.87713C15.4075 5.31179 15.0574 5.66193 14.6227 5.92756C14.188 6.18513 13.7091 6.31392 13.1859 6.31392ZM23.3129 6.31392C22.516 6.31392 21.8318 6.0322 21.2603 5.46875C20.6969 4.89725 20.4151 4.21307 20.4151 3.41619C20.4151 2.62737 20.6969 1.95123 21.2603 1.38778C21.8318 0.824337 22.516 0.542613 23.3129 0.542613C24.0856 0.542613 24.7617 0.824337 25.3413 1.38778C25.9208 1.95123 26.2106 2.62737 26.2106 3.41619C26.2106 3.94744 26.0737 4.43442 25.8001 4.87713C25.5344 5.31179 25.1843 5.66193 24.7496 5.92756C24.315 6.18513 23.8361 6.31392 23.3129 6.31392Z" fill="black"/>
</svg>
