<svg width="80" height="80" viewBox="0 0 80 80" fill="none" xmlns="http://www.w3.org/2000/svg">
<circle cx="40" cy="40" r="40" fill="#D9D9D9"/>
<path d="M56.9293 35.4661H45.3306V23.8702C45.3304 23.6396 45.2388 23.4184 45.0757 23.2552C44.9126 23.092 44.6915 23.0003 44.4608 23H36.3368C36.1061 23.0001 35.8849 23.0919 35.7218 23.2551C35.5587 23.4182 35.467 23.6395 35.467 23.8702L35.4666 35.467L23.8702 35.4666C23.409 35.4666 23.0005 35.875 23 36.3368V44.4608C22.9999 44.5751 23.0223 44.6883 23.066 44.7939C23.1097 44.8995 23.1738 44.9955 23.2546 45.0763C23.3355 45.1571 23.4315 45.2211 23.5371 45.2647C23.6427 45.3084 23.7559 45.3307 23.8702 45.3306H35.467V56.9298C35.4672 57.1605 35.5589 57.3818 35.7221 57.545C35.8852 57.7081 36.1065 57.7999 36.3373 57.8H44.4603C44.5746 57.8 44.6878 57.7775 44.7933 57.7338C44.8989 57.69 44.9949 57.6259 45.0757 57.5451C45.1565 57.4643 45.2206 57.3684 45.2643 57.2628C45.3081 57.1572 45.3306 57.044 45.3306 56.9298V45.331L56.9288 45.3306C57.0431 45.3307 57.1564 45.3084 57.2621 45.2647C57.3677 45.221 57.4637 45.1569 57.5446 45.0761C57.6254 44.9952 57.6895 44.8992 57.7332 44.7936C57.7769 44.6879 57.7992 44.5747 57.799 44.4603L57.7995 36.3363C57.7995 36.1055 57.7078 35.8842 57.5446 35.721C57.3814 35.5578 57.1601 35.4661 56.9293 35.4661Z" fill="white"/>
</svg>
