<svg width="35" height="35" viewBox="0 0 35 35" fill="none" xmlns="http://www.w3.org/2000/svg">
<path d="M33.9293 12.4661H22.3306V0.87024C22.3304 0.63956 22.2388 0.418358 22.0757 0.255197C21.9126 0.092037 21.6915 0.000254298 21.4608 0H13.3368C13.1061 0.000127258 12.8849 0.0918694 12.7218 0.255057C12.5587 0.418245 12.467 0.639521 12.467 0.87024L12.4666 12.467L0.87024 12.4666C0.40896 12.4666 0.000480532 12.875 5.31758e-07 13.3368V21.4608C-0.000125918 21.5751 0.0223006 21.6883 0.0659954 21.7939C0.10969 21.8995 0.173794 21.9955 0.254635 22.0763C0.335476 22.1571 0.431464 22.2211 0.537101 22.2647C0.642737 22.3084 0.755946 22.3307 0.87024 22.3306H12.467V33.9298C12.4672 34.1605 12.5589 34.3818 12.7221 34.545C12.8852 34.7081 13.1065 34.7999 13.3373 34.8H21.4603C21.5746 34.8 21.6878 34.7775 21.7933 34.7338C21.8989 34.69 21.9949 34.6259 22.0757 34.5451C22.1565 34.4643 22.2206 34.3684 22.2643 34.2628C22.3081 34.1572 22.3306 34.044 22.3306 33.9298V22.331L33.9288 22.3306C34.0431 22.3307 34.1564 22.3084 34.2621 22.2647C34.3677 22.221 34.4637 22.1569 34.5446 22.0761C34.6254 21.9952 34.6895 21.8992 34.7332 21.7936C34.7769 21.6879 34.7992 21.5747 34.799 21.4603L34.7995 13.3363C34.7995 13.1055 34.7078 12.8842 34.5446 12.721C34.3814 12.5578 34.1601 12.4661 33.9293 12.4661Z" fill="white"/>
</svg>
